<svg height="512" viewBox="0 0 512 512" width="512" xmlns="http://www.w3.org/2000/svg">
  <g id="Line_stroke_cut_Ex" data-name="Line stroke cut Ex">
    <g fill="#f74462">
      <path d="m146 120h30v-16h-30a18.021 18.021 0 0 0 -18 18v44a18.021 18.021 0 0 0 18 18h30v-16h-30a2 2 0 0 1 -2-2v-44a2 2 0 0 1 2-2z"/>
      <path d="m248 184v-8a7.989 7.989 0 0 0 -.1-1.235l-10-64a8 8 0 0 0 -7.9-6.765h-20a8 8 0 0 0 -7.9 6.765l-10 64a7.989 7.989 0 0 0 -.1 1.235v8h16v-7.379l2.6-16.621h18.8l2.6 16.621v7.379zm-34.9-40 3.75-24h6.306l3.75 24z"/>
      <path d="m328 104v80h16v-32h24v32h16v-80h-16v32h-24v-32z"/>
      <path d="m294 168h-30v16h30a18.021 18.021 0 0 0 18-18v-12a18.021 18.021 0 0 0 -18-18h-12a2 2 0 0 1 -2-2v-12a2 2 0 0 1 2-2h30v-16h-30a18.021 18.021 0 0 0 -18 18v12a18.021 18.021 0 0 0 18 18h12a2 2 0 0 1 2 2v12a2 2 0 0 1 -2 2z"/>
      <path d="m470.554 299.411a8.058 8.058 0 0 0 -1.128-1.29l-77.426-71.469v-10.652h24a8 8 0 0 0 7.518-5.264l46.587-128a8 8 0 0 0 -7.517-10.736h-70.588v-28a28.032 28.032 0 0 0 -28-28h-216a28.032 28.032 0 0 0 -28 28v28h-25.412a8 8 0 0 0 -7.518 5.264l-14.558 40 15.035 5.472 12.642-34.736h350.974l-40.763 112h-350.975l22.3-61.264-15.036-5.472-26.206 72a8 8 0 0 0 2.092 8.615l77.425 71.469v10.652h-24a8 8 0 0 0 -7.518 5.264l-46.587 128a8 8 0 0 0 7.517 10.736h70.588v28a28.032 28.032 0 0 0 28 28h216a28.032 28.032 0 0 0 28-28v-28h25.412a8 8 0 0 0 7.518-5.264l20.382-56-15.036-5.472-18.465 50.736h-350.974l40.763-112h350.975l-16.475 45.264 15.035 5.472 20.383-56a8 8 0 0 0 -.964-7.325zm-334.554-255.411a12.013 12.013 0 0 1 12-12h216a12.013 12.013 0 0 1 12 12v28h-240zm240 424a12.013 12.013 0 0 1 -12 12h-216a12.013 12.013 0 0 1 -12-12v-28h240zm67.539-172h-51.539v-47.574zm-375.078-80h51.539v47.574zm67.539 0h240v80h-240z"/>
      <path d="m384 336v-8h-16v4.155l-24 19.2v-23.355h-16v80h16v-23.355l24 19.2v4.155h16v-8a8 8 0 0 0 -3-6.247l-32.193-25.753 32.193-25.753a8 8 0 0 0 3-6.247z"/>
      <path d="m248 408v-8a7.989 7.989 0 0 0 -.1-1.235l-10-64a8 8 0 0 0 -7.9-6.765h-19a8 8 0 0 0 -7.885 6.645l-11 64a8.1 8.1 0 0 0 -.115 1.355v8h16v-7.317l2.867-16.683h18.533l2.6 16.621v7.379zm-34.383-40 4.125-24h5.411l3.75 24z"/>
      <path d="m152 328h-24a8 8 0 0 0 -8 8v64a8 8 0 0 0 8 8h24a23.987 23.987 0 0 0 17.873-40 23.987 23.987 0 0 0 -17.873-40zm-16 16h16a8 8 0 0 1 0 16h-16zm16 48h-16v-16h16a8 8 0 0 1 0 16z"/>
      <path d="m282 344h30v-16h-30a18.021 18.021 0 0 0 -18 18v44a18.021 18.021 0 0 0 18 18h30v-16h-30a2 2 0 0 1 -2-2v-44a2 2 0 0 1 2-2z"/>
    </g>
  </g>
</svg>