<svg width="60" height="60" viewBox="0 0 60 60" fill="none" xmlns="http://www.w3.org/2000/svg">
<g clip-path="url(#clip0)">
<path fill-rule="evenodd" clip-rule="evenodd" d="M30.0811 0C31.4901 0 32.4624 1.11099 33.4256 2.21146C33.9959 2.86331 34.5613 3.50922 34.9073 3.57193C35.2617 3.63647 36.0225 3.21396 36.7787 2.79373C38.0298 2.09839 39.274 1.40762 40.5479 1.88187C41.8361 2.3616 42.3185 3.71201 42.7992 5.05783C43.0839 5.85434 43.3673 6.6481 43.6383 6.80695C43.9097 6.96579 44.7442 6.81976 45.5774 6.67419C46.9763 6.42929 48.3734 6.18484 49.4107 7.05963C50.4425 7.9303 50.4361 9.35165 50.4297 10.773C50.426 11.6121 50.4219 12.4512 50.6247 12.6915C50.8274 12.9323 51.6542 13.0714 52.4813 13.2106C53.8853 13.4473 55.2916 13.6839 55.9796 14.8581C56.6658 16.0295 56.1924 17.3657 55.7173 18.7065C55.4321 19.5108 55.146 20.3178 55.2613 20.6277C55.3767 20.9367 56.1087 21.3625 56.8443 21.7905C58.0912 22.5156 59.3455 23.2448 59.5941 24.614C59.8385 25.9598 58.9491 27.079 58.0519 28.2088C57.5016 28.9018 56.9464 29.6008 56.9464 30C56.9464 30.3996 57.5016 31.0986 58.0519 31.7917C58.9491 32.921 59.8385 34.0402 59.5941 35.386C59.3455 36.7552 58.0912 37.4849 56.8443 38.21C56.1087 38.6375 55.3767 39.0633 55.2613 39.3727C55.146 39.6826 55.4321 40.4897 55.7173 41.2939C56.1924 42.6347 56.6658 43.9709 55.9796 45.1419C55.2916 46.3165 53.8853 46.5532 52.4813 46.7894C51.6542 46.929 50.8274 47.0682 50.6247 47.3085C50.4219 47.5493 50.426 48.3884 50.4297 49.2274C50.4361 50.6488 50.4425 52.0702 49.4107 52.9408C48.3734 53.8156 46.9763 53.5712 45.5774 53.3263C44.7442 53.1807 43.9097 53.0347 43.6383 53.1935C43.3673 53.3524 43.0839 54.1461 42.7992 54.9426C42.3185 56.2885 41.8361 57.6389 40.5479 58.1186C39.274 58.5928 38.0298 57.9016 36.7787 57.2067C36.0225 56.7865 35.2621 56.364 34.9073 56.4285C34.5613 56.4912 33.9959 57.1371 33.4256 57.7885C32.4624 58.889 31.4901 60 30.0811 60C28.6726 60 27.7003 58.889 26.7367 57.7885C26.1668 57.1367 25.6015 56.4908 25.2549 56.4281C24.9006 56.3635 24.1403 56.786 23.3836 57.2063C22.1325 57.9016 20.8888 58.5924 19.6148 58.1181C18.3262 57.6384 17.8442 56.288 17.3631 54.9422C17.0788 54.1461 16.795 53.3519 16.524 53.1931C16.253 53.0342 15.4185 53.1802 14.5849 53.3263C13.186 53.5707 11.7889 53.8152 10.7516 52.9404C9.71982 52.0697 9.72623 50.6483 9.73264 49.227C9.73676 48.3879 9.74042 47.5488 9.53763 47.3085C9.33484 47.0677 8.50858 46.9286 7.68094 46.7894C6.27698 46.5532 4.87073 46.3161 4.18271 45.1419C3.49698 43.9705 3.97031 42.6343 4.44547 41.2935C4.73065 40.4892 5.0163 39.6822 4.90094 39.3723C4.78604 39.0633 4.05408 38.6375 3.31799 38.2095C2.0715 37.4844 0.816774 36.7552 0.568666 35.386C0.32422 34.0402 1.2132 32.9205 2.11041 31.7912C2.6611 31.0982 3.21637 30.3992 3.21637 29.9995C3.21637 29.6004 2.6611 28.9014 2.11041 28.2083C1.2132 27.0786 0.32422 25.9598 0.568666 24.6135C0.816774 23.2443 2.0715 22.5151 3.31799 21.79C4.05408 21.362 4.78604 20.9363 4.90094 20.6273C5.0163 20.3174 4.73065 19.5103 4.44547 18.7061C3.97031 17.3653 3.49652 16.0291 4.18271 14.8581C4.87073 13.6835 6.27698 13.4468 7.68094 13.2106C8.50858 13.071 9.33484 12.9318 9.53763 12.6915C9.74042 12.4507 9.73676 11.6116 9.73264 10.7726C9.72623 9.3512 9.71982 7.92938 10.7516 7.05963C11.7889 6.18484 13.186 6.42883 14.5849 6.67374C15.4185 6.81931 16.253 6.96533 16.524 6.80649C16.795 6.6481 17.0788 5.85388 17.3631 5.05737C17.8438 3.71201 18.3267 2.36115 19.6148 1.88141C20.8888 1.40717 22.1325 2.09839 23.3836 2.79327C24.1403 3.2135 24.9006 3.63602 25.2549 3.57147C25.6015 3.50876 26.1668 2.86285 26.7367 2.21146C27.7003 1.11099 28.6726 0 30.0811 0V0ZM44.6032 15.1378C43.956 15.1378 43.4314 15.6624 43.4314 16.3097C43.4314 16.5981 43.5357 16.8622 43.7088 17.0663V17.0668L43.7083 17.0663L43.712 17.0705C43.7358 17.0984 43.761 17.1249 43.787 17.1501C46.9387 20.5101 48.8687 25.0296 48.8687 30C48.8687 35.1883 46.7662 39.8849 43.3664 43.2848C39.9665 46.685 35.2694 48.7875 30.0811 48.7875C27.8601 48.7875 25.7292 48.4021 23.7516 47.6944C23.7164 47.6797 23.6798 47.6669 23.6427 47.6555L23.64 47.6541V47.6546C23.5324 47.6221 23.4179 47.6042 23.2998 47.6042C22.653 47.6042 22.128 48.1288 22.128 48.7761C22.128 49.3071 22.4814 49.7552 22.9652 49.8994C25.1886 50.6946 27.5845 51.1281 30.0811 51.1281C35.9153 51.1281 41.1975 48.7628 45.0207 44.9396C48.8444 41.1159 51.2092 35.8342 51.2092 30C51.2092 24.4171 49.0435 19.3405 45.5073 15.5635C45.2922 15.3035 44.9672 15.1378 44.6032 15.1378ZM41.0666 12.1632C40.4197 12.1632 39.8947 12.6878 39.8947 13.3351C39.8947 13.9819 40.4197 14.507 41.0666 14.507C41.7138 14.507 42.2384 13.9819 42.2384 13.3351C42.2384 12.6878 41.7138 12.1632 41.0666 12.1632ZM37.263 10.1244C35.0209 9.31412 32.603 8.87192 30.0811 8.87192C24.2469 8.87192 18.9653 11.2367 15.1416 15.0604C11.3183 18.8837 8.95306 24.1658 8.95306 30C8.95306 35.571 11.1096 40.638 14.6325 44.4127C14.8477 44.67 15.1709 44.8338 15.5325 44.8338C16.1798 44.8338 16.7044 44.3092 16.7044 43.662C16.7044 43.3745 16.6009 43.1113 16.4288 42.9076V42.9066L16.4242 42.9016C16.4013 42.8746 16.3771 42.849 16.3519 42.8247C13.2144 39.467 11.2936 34.958 11.2936 30C11.2936 24.8117 13.3966 20.1146 16.7964 16.7152C20.1962 13.315 24.8933 11.2125 30.0811 11.2125C32.3233 11.2125 34.4734 11.6052 36.4669 12.3257H36.4674C36.6084 12.3857 36.7631 12.4187 36.9261 12.4187C37.5734 12.4187 38.098 11.8941 38.098 11.2468C38.098 10.7167 37.7459 10.269 37.263 10.1244ZM19.0957 45.493C18.4489 45.493 17.9239 46.0176 17.9239 46.6649C17.9239 47.3122 18.4489 47.8368 19.0957 47.8368C19.743 47.8368 20.2676 47.3122 20.2676 46.6649C20.2676 46.0176 19.743 45.493 19.0957 45.493ZM23.2586 18.4827C21.9151 18.4827 20.6988 19.0269 19.8181 19.9077C18.9378 20.7884 18.3931 22.0047 18.3931 23.3482C18.3931 24.6913 18.9378 25.9081 19.8181 26.7883C20.6988 27.6691 21.9151 28.2138 23.2586 28.2138C24.6022 28.2138 25.8184 27.6691 26.6992 26.7883C27.5795 25.9081 28.1242 24.6913 28.1242 23.3482C28.1242 22.0047 27.5795 20.7884 26.6992 19.9077C25.8184 19.0269 24.6022 18.4827 23.2586 18.4827ZM25.0444 21.5625C24.5875 21.1057 23.9563 20.8228 23.2586 20.8228C22.5615 20.8228 21.9297 21.1057 21.4729 21.5625C21.0161 22.0193 20.7336 22.6506 20.7336 23.3482C20.7336 24.0454 21.0161 24.6771 21.4729 25.134C21.9297 25.5904 22.5615 25.8733 23.2586 25.8733C23.9563 25.8733 24.5875 25.5908 25.0444 25.134C25.5012 24.6771 25.7837 24.0454 25.7837 23.3482C25.7837 22.6506 25.5012 22.0193 25.0444 21.5625ZM35.9305 19.0128L22.285 39.7073C21.9316 40.2452 22.0808 40.9676 22.6187 41.321C23.1566 41.6743 23.8789 41.5251 24.2323 40.9872L37.8778 20.2927C38.2312 19.7548 38.0819 19.0324 37.5441 18.679C37.0062 18.3257 36.2838 18.4749 35.9305 19.0128ZM36.9041 31.7862C35.5606 31.7862 34.3438 32.3309 33.4636 33.2112C32.5833 34.0919 32.0385 35.3087 32.0385 36.6518C32.0385 37.9953 32.5833 39.2116 33.4636 40.0923C34.3443 40.9726 35.5606 41.5173 36.9041 41.5173C38.2476 41.5173 39.4639 40.9726 40.3442 40.0923C41.2249 39.2116 41.7697 37.9953 41.7697 36.6518C41.7697 35.3082 41.2249 34.0919 40.3442 33.2112C39.4639 32.3309 38.2476 31.7862 36.9041 31.7862ZM38.6894 34.866C38.233 34.4096 37.6013 34.1267 36.9041 34.1267C36.2065 34.1267 35.5752 34.4092 35.1184 34.866C34.6615 35.3229 34.3786 35.9546 34.3786 36.6518C34.3786 37.3494 34.6615 37.9807 35.1184 38.4375C35.5752 38.8943 36.2065 39.1768 36.9041 39.1768C37.6013 39.1768 38.233 38.8943 38.6894 38.4375C39.1467 37.9807 39.4291 37.3494 39.4291 36.6518C39.4291 35.9546 39.1467 35.3233 38.6894 34.866ZM31.6705 3.74771C31.0576 3.04733 30.4391 2.34055 30.0816 2.34055C29.7236 2.34055 29.1052 3.04733 28.4922 3.74771C27.6532 4.70627 26.821 5.65704 25.6665 5.8667C24.4946 6.07956 23.3694 5.45425 22.2502 4.83215C21.4702 4.39865 20.6942 3.9679 20.4287 4.06677C20.1669 4.16428 19.8661 5.00565 19.5668 5.84381C19.1406 7.03629 18.7162 8.2251 17.7037 8.8179C16.6842 9.41528 15.4327 9.19647 14.183 8.97766C13.3201 8.82706 12.4577 8.67599 12.2609 8.84262C12.0567 9.01474 12.0604 9.88953 12.0645 10.7639C12.0704 12.0341 12.0759 13.3044 11.3206 14.2003C10.5676 15.0934 9.31699 15.304 8.065 15.5145C7.19846 15.6606 6.32962 15.8066 6.19458 16.0378C6.06 16.2671 6.35388 17.097 6.64914 17.9292C7.07395 19.1281 7.50012 20.3307 7.0863 21.4412C6.67798 22.5375 5.58621 23.1725 4.4885 23.811C3.70572 24.2661 2.91791 24.7243 2.86344 25.0255C2.80805 25.3308 3.37109 26.0394 3.93918 26.7549C4.74484 27.7689 5.55737 28.7915 5.55737 30C5.55737 31.209 4.74484 32.2311 3.93918 33.2455C3.37109 33.9606 2.80805 34.6692 2.86344 34.975C2.91791 35.2762 3.70572 35.7339 4.4885 36.1894C5.58621 36.8275 6.67798 37.4625 7.0863 38.5588C7.50012 39.6698 7.07395 40.8723 6.64914 42.0712C6.35388 42.9034 6.06 43.7329 6.19458 43.9627C6.32962 44.1934 7.198 44.3399 8.065 44.4855C9.31744 44.6965 10.5676 44.9066 11.3206 45.8002C12.0759 46.6956 12.0704 47.9659 12.0645 49.2366C12.0604 50.1109 12.0567 50.9853 12.2609 51.1578C12.4582 51.324 13.3201 51.1734 14.183 51.0223C15.4327 50.804 16.6842 50.5847 17.7037 51.1821C18.7162 51.7749 19.1411 52.9637 19.5668 54.1562C19.8661 54.9944 20.1669 55.8362 20.4287 55.9332C20.6942 56.0321 21.4702 55.6013 22.2502 55.1678C23.3694 54.5462 24.4946 53.9209 25.6665 54.1338C26.8214 54.343 27.6532 55.2937 28.4922 56.2527C29.1052 56.9531 29.7236 57.6599 30.0816 57.6599C30.4391 57.6599 31.0576 56.9531 31.6705 56.2527C32.5096 55.2937 33.3418 54.343 34.4958 54.1338C35.6677 53.9209 36.7933 54.5462 37.9126 55.1678C38.6926 55.6013 39.4685 56.0321 39.734 55.9332C39.9958 55.8362 40.2966 54.9944 40.596 54.1562C41.0222 52.9637 41.4465 51.7754 42.4586 51.1821C43.4785 50.5847 44.7296 50.8035 45.9793 51.0223C46.8426 51.1734 47.7046 51.3245 47.9023 51.1578C48.106 50.9853 48.1024 50.1109 48.0983 49.2366C48.0923 47.9663 48.0868 46.6956 48.8421 45.8002C49.5951 44.9066 50.8453 44.6965 52.0973 44.4855C52.9643 44.3399 53.8331 44.1934 53.9682 43.9627C54.1027 43.7329 53.8089 42.9034 53.5136 42.0712C53.0888 40.8723 52.6626 39.6698 53.0764 38.5588C53.4843 37.4625 54.5765 36.8275 55.6738 36.1894C56.457 35.7339 57.2444 35.2762 57.2993 34.975C57.3547 34.6692 56.7917 33.9606 56.2236 33.2455C55.4179 32.2311 54.6054 31.209 54.6054 30C54.6054 28.7915 55.4179 27.7689 56.2236 26.7549C56.7917 26.0394 57.3547 25.3308 57.2993 25.0255C57.2444 24.7243 56.457 24.2661 55.6738 23.811C54.5765 23.1725 53.4843 22.5375 53.0764 21.4412C52.6626 20.3307 53.0888 19.1281 53.5136 17.9292C53.8089 17.097 54.1027 16.2671 53.9682 16.0378C53.8331 15.8066 52.9643 15.6606 52.0973 15.5145C50.8453 15.304 49.5951 15.0934 48.8421 14.2003C48.0868 13.3044 48.0923 12.0341 48.0983 10.7639C48.1024 9.88953 48.106 9.01474 47.9023 8.84262C47.7046 8.67599 46.8426 8.82706 45.9793 8.97766C44.7296 9.19647 43.4785 9.41528 42.4591 8.8179C41.4465 8.2251 41.0217 7.03629 40.596 5.84381C40.2966 5.00565 39.9958 4.16428 39.734 4.06677C39.4685 3.9679 38.6926 4.39865 37.9126 4.83215C36.7929 5.45425 35.6677 6.07956 34.4958 5.8667C33.3413 5.65704 32.5096 4.70627 31.6705 3.74771Z" fill="#FB5A16"/>
</g>
<defs>
<clipPath id="clip0">
<rect width="59.8828" height="60" fill="white"/>
</clipPath>
</defs>
</svg>
