<svg width="122" height="19" viewBox="0 0 122 19" fill="none" xmlns="http://www.w3.org/2000/svg">
<path d="M1.37492 0.669189C1.19222 0.462127 0.876251 0.442379 0.669189 0.625081C0.462127 0.807783 0.442379 1.12375 0.625081 1.33081L1.37492 0.669189ZM121.5 1.01428C121.508 0.73825 121.29 0.508091 121.014 0.500204L116.516 0.371685C116.24 0.363798 116.01 0.581171 116.002 0.857201C115.994 1.13323 116.212 1.36339 116.488 1.37128L120.486 1.48552L120.372 5.48388C120.364 5.75991 120.581 5.99007 120.857 5.99796C121.133 6.00585 121.363 5.78847 121.371 5.51244L121.5 1.01428ZM1 1C0.625081 1.33081 0.62511 1.33084 0.62514 1.33088C0.625151 1.33089 0.625181 1.33092 0.625203 1.33095C0.625248 1.331 0.625295 1.33105 0.625346 1.33111C0.625448 1.33123 0.625563 1.33136 0.625691 1.3315C0.625949 1.33179 0.62626 1.33214 0.626625 1.33255C0.627354 1.33338 0.628299 1.33444 0.629461 1.33574C0.631783 1.33835 0.634971 1.3419 0.639029 1.3464C0.647145 1.3554 0.658743 1.36816 0.673871 1.38456C0.704126 1.41737 0.748496 1.46475 0.807356 1.52577C0.925075 1.64781 1.10075 1.82439 1.33736 2.04799L2.0242 1.32118C1.79902 1.10838 1.6343 0.94267 1.52708 0.831514C1.47347 0.775936 1.43423 0.733997 1.40899 0.706631C1.39638 0.692949 1.38726 0.682909 1.38159 0.67663C1.37876 0.67349 1.37679 0.671291 1.37568 0.670046C1.37513 0.669423 1.37479 0.669039 1.37466 0.668896C1.3746 0.668824 1.37459 0.668813 1.37463 0.668862C1.37465 0.668886 1.37469 0.668925 1.37473 0.66898C1.37476 0.669007 1.37479 0.669038 1.37482 0.669073C1.37483 0.669091 1.37486 0.66912 1.37487 0.669128C1.37489 0.669158 1.37492 0.669189 1 1ZM2.82746 3.34944C3.27511 3.71462 3.7948 4.11913 4.38997 4.55428L4.98018 3.74703C4.39948 3.32246 3.89376 2.92876 3.45959 2.57457L2.82746 3.34944ZM6.00027 5.67643C6.51517 6.01891 7.07003 6.3734 7.66609 6.73673L8.18657 5.88286C7.60185 5.52644 7.0581 5.17903 6.55409 4.84379L6.00027 5.67643ZM9.35711 7.72599C9.90302 8.03261 10.477 8.34321 11.0797 8.65608L11.5404 7.76855C10.9475 7.46075 10.3832 7.15537 9.84681 6.85411L9.35711 7.72599ZM12.8331 9.53201C13.4037 9.80626 13.9964 10.081 14.6117 10.3552L15.0187 9.44177C14.4122 9.17153 13.8282 8.90081 13.2663 8.63072L12.8331 9.53201ZM16.4121 11.1278C17.0003 11.3709 17.607 11.6126 18.2323 11.8523L18.5901 10.9185C17.9729 10.6819 17.3742 10.4434 16.794 10.2036L16.4121 11.1278ZM20.0716 12.5309C20.6751 12.7453 21.2944 12.9572 21.9298 13.1661L22.2421 12.2161C21.6142 12.0096 21.0023 11.8003 20.4062 11.5886L20.0716 12.5309ZM23.7949 13.756C24.4045 13.9413 25.0277 14.1236 25.6647 14.3025L25.935 13.3397C25.3049 13.1628 24.6885 12.9825 24.0858 12.7992L23.7949 13.756ZM27.5521 14.8112C28.1752 14.9724 28.8107 15.13 29.4586 15.2839L29.6896 14.3109C29.0481 14.1586 28.4191 14.0026 27.8024 13.8431L27.5521 14.8112ZM31.3617 15.7165C31.9866 15.8523 32.6224 15.9845 33.2692 16.1127L33.4637 15.1318C32.8228 15.0048 32.193 14.8738 31.5741 14.7393L31.3617 15.7165ZM35.1987 16.4773C35.8292 16.5907 36.4696 16.7003 37.12 16.8058L37.2802 15.8187C36.6353 15.7141 36.0005 15.6055 35.3757 15.4931L35.1987 16.4773ZM39.0473 17.1022C39.6881 17.1954 40.3382 17.2846 40.9976 17.3697L41.1255 16.3779C40.4714 16.2935 39.8267 16.205 39.1912 16.1126L39.0473 17.1022ZM42.9204 17.6028C43.5626 17.6757 44.2134 17.7447 44.8726 17.8096L44.9705 16.8144C44.3162 16.75 43.6705 16.6816 43.0332 16.6092L42.9204 17.6028ZM46.809 17.986C47.4513 18.0399 48.1013 18.0899 48.7592 18.1358L48.8289 17.1382C48.1756 17.0926 47.5302 17.043 46.8926 16.9895L46.809 17.986ZM50.7063 18.2585C51.3487 18.2946 51.9983 18.3269 52.6552 18.3552L52.6982 17.3561C52.0457 17.328 51.4005 17.2959 50.7624 17.26L50.7063 18.2585ZM54.6074 18.4268C55.2504 18.4462 55.9001 18.462 56.5565 18.4737L56.5745 17.4739C55.9221 17.4622 55.2766 17.4466 54.6377 17.4272L54.6074 18.4268ZM58.509 18.4971C58.8377 18.499 59.168 18.5 59.5 18.5V17.5C59.17 17.5 58.8417 17.499 58.515 17.4971L58.509 18.4971ZM59.5 18.5C59.8456 18.5 60.1897 18.4989 60.5321 18.4968L60.5259 17.4968C60.1855 17.4989 59.8436 17.5 59.5 17.5V18.5ZM62.5676 18.4716C63.2531 18.4588 63.932 18.4418 64.6043 18.4206L64.5729 17.4211C63.9049 17.4421 63.2302 17.459 62.5489 17.4717L62.5676 18.4716ZM66.6363 18.3436C67.3229 18.313 68.0024 18.2782 68.6748 18.2392L68.617 17.2409C67.949 17.2796 67.274 17.3142 66.5918 17.3445L66.6363 18.3436ZM70.6985 18.1081C71.3864 18.0588 72.0667 18.0052 72.7393 17.9474L72.6537 16.9511C71.9858 17.0084 71.3102 17.0617 70.627 17.1107L70.6985 18.1081ZM74.7521 17.76C75.4405 17.6909 76.1206 17.6175 76.7923 17.5399L76.6776 16.5465C76.0108 16.6235 75.3357 16.6964 74.6522 16.765L74.7521 17.76ZM78.8096 17.2915C79.4909 17.2023 80.1633 17.1089 80.8268 17.0115L80.6816 16.0221C80.0232 16.1188 79.356 16.2115 78.6798 16.3L78.8096 17.2915ZM82.8471 16.6984C83.5229 16.588 84.189 16.4736 84.8455 16.3553L84.6682 15.3711C84.0171 15.4885 83.3563 15.602 82.6859 15.7115L82.8471 16.6984ZM86.8545 15.9757C87.532 15.8416 88.1988 15.7035 88.8548 15.5618L88.6435 14.5843C87.9933 14.7249 87.3322 14.8618 86.6604 14.9947L86.8545 15.9757ZM90.8362 15.1151C91.5082 14.9572 92.1682 14.7955 92.8163 14.6305L92.5696 13.6614C91.9275 13.8249 91.2735 13.9851 90.6075 14.1416L90.8362 15.1151ZM94.795 14.1065C95.4624 13.9229 96.1161 13.7358 96.7565 13.5459L96.4721 12.5872C95.8381 12.7752 95.1907 12.9605 94.5297 13.1423L94.795 14.1065ZM98.7018 12.9474C99.3606 12.7372 100.004 12.5244 100.632 12.3093L100.308 11.3632C99.6867 11.576 99.05 11.7867 98.398 11.9947L98.7018 12.9474ZM102.558 11.626C103.214 11.3853 103.851 11.1428 104.47 10.8991L104.104 9.96861C103.492 10.2094 102.862 10.4493 102.214 10.6873L102.558 11.626ZM106.362 10.1283C107.008 9.85602 107.632 9.58348 108.234 9.31179L107.822 8.40036C107.228 8.66863 106.612 8.93781 105.974 9.2068L106.362 10.1283ZM110.081 8.44824C110.718 8.1402 111.327 7.8348 111.907 7.53368L111.446 6.64606C110.874 6.94289 110.274 7.24409 109.646 7.54802L110.081 8.44824ZM113.717 6.55989C114.347 6.20827 114.936 5.86566 115.485 5.53504L114.969 4.67836C114.43 5.00338 113.85 5.34046 113.23 5.68667L113.717 6.55989ZM117.224 4.44467C117.865 4.02533 118.429 3.63626 118.917 3.28563L118.334 2.47342C117.857 2.81569 117.305 3.1965 116.677 3.60771L117.224 4.44467ZM120.554 2.04023C120.815 1.82801 121.01 1.66086 121.141 1.54575C121.207 1.4882 121.256 1.44365 121.29 1.41299C121.307 1.39766 121.319 1.38579 121.328 1.37751C121.333 1.37337 121.336 1.37012 121.339 1.36778C121.34 1.36661 121.341 1.36567 121.342 1.36496C121.342 1.3646 121.342 1.3643 121.343 1.36406C121.343 1.36394 121.343 1.36383 121.343 1.36374C121.343 1.36369 121.343 1.36365 121.343 1.36361C121.343 1.36359 121.343 1.36357 121.343 1.36356C121.343 1.36353 121.343 1.36351 121 1C120.657 0.636493 120.657 0.63647 120.657 0.636448C120.657 0.636442 120.657 0.636421 120.657 0.636409C120.657 0.636384 120.657 0.636363 120.657 0.636346C120.657 0.636311 120.657 0.636291 120.657 0.636285C120.657 0.636273 120.657 0.636318 120.657 0.636421C120.657 0.636625 120.656 0.637059 120.655 0.63772C120.654 0.639041 120.652 0.641271 120.648 0.644395C120.641 0.650642 120.631 0.660468 120.616 0.673764C120.587 0.700355 120.542 0.740824 120.481 0.794305C120.359 0.901267 120.174 1.06027 119.923 1.26439L120.554 2.04023Z" fill="#FB5A16"/>
</svg>
