<svg width="122" height="21" viewBox="0 0 122 21" fill="none" xmlns="http://www.w3.org/2000/svg">
<path d="M0.607559 19.6902C0.436449 19.9069 0.473438 20.2213 0.690178 20.3924C0.906917 20.5636 1.22133 20.5266 1.39244 20.3098L0.607559 19.6902ZM120.986 20.4998C121.263 20.5073 121.492 20.2896 121.5 20.0135L121.621 15.5152C121.629 15.2391 121.411 15.0093 121.135 15.0018C120.859 14.9944 120.629 15.2121 120.622 15.4881L120.514 19.4867L116.515 19.3786C116.239 19.3711 116.009 19.5889 116.002 19.8649C115.994 20.141 116.212 20.3708 116.488 20.3782L120.986 20.4998ZM1 20C1.39244 20.3098 1.39242 20.3099 1.39239 20.3099C1.39239 20.3099 1.39236 20.3099 1.39235 20.3099C1.39232 20.31 1.3923 20.31 1.39228 20.31C1.39224 20.3101 1.39221 20.3101 1.39219 20.3101C1.39216 20.3102 1.39218 20.3102 1.39224 20.3101C1.39238 20.3099 1.39272 20.3095 1.39327 20.3088C1.39436 20.3074 1.39626 20.305 1.39898 20.3017C1.40443 20.2949 1.41316 20.2842 1.42522 20.2695C1.44933 20.2403 1.48674 20.1955 1.53779 20.1362C1.6399 20.0177 1.79658 19.841 2.01057 19.6139L1.2828 18.9281C1.05831 19.1663 0.891647 19.3541 0.780031 19.4837C0.724223 19.5485 0.682177 19.5988 0.653548 19.6335C0.639233 19.6509 0.628272 19.6644 0.620621 19.6739C0.616796 19.6786 0.613799 19.6823 0.611623 19.6851C0.610536 19.6864 0.609654 19.6875 0.608976 19.6884C0.608638 19.6888 0.60835 19.6892 0.608114 19.6895C0.607996 19.6896 0.607891 19.6898 0.607798 19.6899C0.607752 19.6899 0.607709 19.69 0.607669 19.69C0.607649 19.6901 0.607621 19.6901 0.607611 19.6901C0.607585 19.6901 0.607559 19.6902 1 20ZM3.38997 18.2594C3.80902 17.8745 4.29753 17.4459 4.85883 16.9829L4.22254 16.2115C3.64725 16.686 3.14533 17.1263 2.71348 17.523L3.38997 18.2594ZM6.39275 15.7765C6.88183 15.4092 7.40961 15.0281 7.9773 14.6367L7.40973 13.8134C6.83074 14.2126 6.29196 14.6015 5.79217 14.9769L6.39275 15.7765ZM9.61552 13.5527C10.1415 13.2186 10.695 12.8796 11.2769 12.5376L10.7702 11.6754C10.1783 12.0233 9.61485 12.3684 9.07924 12.7087L9.61552 13.5527ZM12.9767 11.5758C13.5319 11.2735 14.1092 10.9702 14.709 10.6673L14.2582 9.77465C13.6491 10.0823 13.0626 10.3904 12.4985 10.6976L12.9767 11.5758ZM16.4697 9.8106C17.0467 9.54026 17.6421 9.27113 18.2565 9.00413L17.8579 8.08701C17.2349 8.35776 16.6309 8.63076 16.0454 8.90508L16.4697 9.8106ZM20.0678 8.24602C20.661 8.00701 21.2702 7.7705 21.8956 7.53716L21.546 6.60026C20.9126 6.83661 20.2953 7.07624 19.6941 7.31846L20.0678 8.24602ZM23.7328 6.8776C24.3379 6.66874 24.9568 6.46314 25.59 6.26134L25.2863 5.30856C24.6456 5.51277 24.0191 5.72088 23.4065 5.93233L23.7328 6.8776ZM27.468 5.68666C28.0884 5.50457 28.7213 5.3263 29.3671 5.15229L29.1069 4.18674C28.454 4.36267 27.8138 4.54296 27.1864 4.72714L27.468 5.68666ZM31.2537 4.66548C31.8784 4.51127 32.5145 4.36115 33.1619 4.21545L32.9423 3.23985C32.2882 3.38705 31.6455 3.53876 31.0141 3.69461L31.2537 4.66548ZM35.0936 3.80117C35.7214 3.67306 36.3594 3.54916 37.0075 3.42977L36.8264 2.44631C36.1719 2.56685 35.5277 2.69197 34.8936 2.82136L35.0936 3.80117ZM38.942 3.09213C39.5818 2.98656 40.2311 2.88539 40.8899 2.78889L40.745 1.79945C40.0802 1.89682 39.425 1.99892 38.7792 2.10547L38.942 3.09213ZM42.8237 2.52281C43.4692 2.43965 44.1236 2.36095 44.7867 2.28695L44.6758 1.29312C44.0071 1.36775 43.3471 1.44712 42.6959 1.53101L42.8237 2.52281ZM46.7279 2.08636C47.3742 2.02485 48.0285 1.96777 48.691 1.91532L48.6121 0.918444C47.9444 0.971309 47.2847 1.02885 46.6331 1.09086L46.7279 2.08636ZM50.6463 1.77566C51.2932 1.73441 51.9475 1.69754 52.6093 1.66521L52.5605 0.666405C51.8937 0.698967 51.2345 0.736117 50.5827 0.777688L50.6463 1.77566ZM54.5725 1.58361C55.2201 1.56135 55.8746 1.54341 56.5361 1.52995L56.5157 0.530153C55.8496 0.543715 55.1904 0.561781 54.5382 0.584201L54.5725 1.58361ZM58.5019 1.50336C58.8329 1.50113 59.1656 1.5 59.5 1.5V0.5C59.1633 0.5 58.8284 0.501134 58.4951 0.503385L58.5019 1.50336ZM59.5 1.5C59.8477 1.5 60.1937 1.50122 60.538 1.50363L60.5451 0.503658C60.1983 0.501226 59.85 0.5 59.5 0.5V1.5ZM62.5847 1.53235C63.2744 1.5469 63.9573 1.56629 64.6335 1.59033L64.669 0.590964C63.988 0.566746 63.3003 0.547226 62.6058 0.53257L62.5847 1.53235ZM66.6745 1.67794C67.3652 1.71271 68.0485 1.75237 68.7245 1.79672L68.79 0.798861C68.1088 0.754181 67.4205 0.714233 66.7248 0.679208L66.6745 1.67794ZM70.7548 1.9456C71.4463 2.0017 72.13 2.06273 72.8057 2.12846L72.9026 1.13316C72.2215 1.06691 71.5325 1.0054 70.8357 0.94887L70.7548 1.9456ZM74.8289 2.34177C75.5179 2.42009 76.1984 2.5033 76.8704 2.59117L77.0001 1.59961C76.3225 1.51102 75.6364 1.42712 74.9419 1.34816L74.8289 2.34177ZM78.8955 2.87354C79.5761 2.97443 80.2476 3.08007 80.9101 3.19018L81.074 2.20371C80.4058 2.09264 79.7285 1.9861 79.0421 1.88435L78.8955 2.87354ZM82.9347 3.54552C83.6119 3.67076 84.2792 3.80063 84.9366 3.93481L85.1366 2.95502C84.4731 2.8196 83.7998 2.68855 83.1165 2.56219L82.9347 3.54552ZM86.9349 4.36243C87.6121 4.51413 88.2783 4.67033 88.9334 4.83065L89.1711 3.8593C88.5096 3.69743 87.8371 3.53974 87.1535 3.38661L86.9349 4.36243ZM90.9114 5.33564C91.5768 5.51268 92.2301 5.69383 92.8714 5.87865L93.1483 4.91776C92.5004 4.73104 91.8405 4.54806 91.1685 4.36926L90.9114 5.33564ZM94.8395 6.46859C95.5026 6.67512 96.1519 6.88535 96.7876 7.09874L97.1058 6.15073C96.4632 5.93502 95.807 5.72254 95.1369 5.51383L94.8395 6.46859ZM98.7162 7.7703C99.3683 8.00569 100.005 8.24405 100.626 8.48468L100.987 7.55222C100.359 7.3088 99.7151 7.06774 99.0557 6.82971L98.7162 7.7703ZM102.517 9.24342C103.16 9.51047 103.785 9.77938 104.391 10.0492L104.798 9.13556C104.184 8.86234 103.551 8.59015 102.9 8.3199L102.517 9.24342ZM106.248 10.9038C106.88 11.2049 107.49 11.5059 108.078 11.8057L108.532 10.9148C107.936 10.6109 107.318 10.3059 106.678 10.001L106.248 10.9038ZM109.884 12.7585C110.506 13.0983 111.1 13.4348 111.666 13.7661L112.171 12.9032C111.597 12.5669 110.994 12.2255 110.363 11.8808L109.884 12.7585ZM113.413 14.8263C114.019 15.2073 114.584 15.578 115.111 15.9351L115.672 15.1074C115.136 14.744 114.561 14.3671 113.946 13.9799L113.413 14.8263ZM116.783 17.115C117.395 17.565 117.931 17.9813 118.394 18.3549L119.022 17.5767C118.548 17.1939 117.999 16.7686 117.375 16.3095L116.783 17.115ZM119.932 19.6687C120.173 19.8882 120.351 20.0591 120.468 20.1741C120.527 20.2316 120.57 20.2751 120.598 20.3037C120.612 20.318 120.622 20.3286 120.629 20.3353C120.632 20.3387 120.634 20.3411 120.636 20.3425C120.636 20.3432 120.637 20.3437 120.637 20.3439C120.637 20.344 120.637 20.3441 120.637 20.3441C120.637 20.3441 120.637 20.3441 120.637 20.344C120.637 20.344 120.637 20.344 120.637 20.344C120.637 20.3439 120.637 20.3439 120.637 20.3439C120.637 20.3439 120.637 20.3439 121 20C121.363 19.6561 121.363 19.6561 121.363 19.6561C121.363 19.6561 121.363 19.656 121.363 19.656C121.363 19.656 121.363 19.6559 121.363 19.6559C121.363 19.6558 121.363 19.6557 121.362 19.6555C121.362 19.6553 121.362 19.655 121.362 19.6546C121.361 19.6538 121.36 19.6528 121.359 19.6516C121.356 19.6491 121.353 19.6456 121.349 19.6412C121.34 19.6324 121.328 19.6197 121.312 19.6032C121.279 19.5704 121.232 19.5227 121.169 19.4609C121.044 19.3374 120.856 19.1579 120.606 18.9298L119.932 19.6687Z" fill="#FB5A16"/>
</svg>
