<svg width="60" height="60" viewBox="0 0 60 60" fill="none" xmlns="http://www.w3.org/2000/svg">
<g clip-path="url(#clip0)">
<path d="M24.4958 14.5329H17.6374C16.212 14.5329 15.0521 15.6926 15.0521 17.1182V26.636H14.7544C13.3289 26.636 12.1691 27.7957 12.1691 29.2213C12.1691 30.6468 13.3288 31.8066 14.7544 31.8066H15.0521V33.4158H14.7544C13.3289 33.4158 12.1691 34.5756 12.1691 36.0011C12.1691 37.4265 13.3288 38.5863 14.7544 38.5863H15.0521V40.9773C15.0521 42.4028 16.2118 43.5626 17.6374 43.5626C19.0629 43.5626 20.2227 42.4029 20.2227 40.9773V38.5863H24.0923C25.5178 38.5863 26.6776 37.4266 26.6776 36.0011C26.6776 34.5756 25.5179 33.4158 24.0923 33.4158H20.2227V31.8066H24.4958C29.2582 31.8066 33.1325 27.9321 33.1325 23.1698C33.1325 18.4072 29.2582 14.5329 24.4958 14.5329ZM24.4958 30.0485H19.3438C18.8584 30.0485 18.4649 30.442 18.4649 30.9274V34.2945C18.4649 34.7798 18.8584 35.1734 19.3438 35.1734H24.0923C24.5486 35.1734 24.9198 35.5446 24.9198 36.0008C24.9198 36.457 24.5487 36.8283 24.0923 36.8283H19.3438C18.8584 36.8283 18.4649 37.2218 18.4649 37.7072V40.9771C18.4649 41.4333 18.0938 41.8045 17.6374 41.8045C17.1812 41.8045 16.81 41.4334 16.81 40.9771V37.7072C16.81 37.2218 16.4164 36.8283 15.9311 36.8283H14.7544C14.2982 36.8283 13.9269 36.4571 13.9269 36.0008C13.9269 35.5446 14.298 35.1734 14.7544 35.1734H15.9311C16.4164 35.1734 16.81 34.7798 16.81 34.2945V30.9274C16.81 30.442 16.4164 30.0485 15.9311 30.0485H14.7544C14.2982 30.0485 13.9269 29.6774 13.9269 29.2211C13.9269 28.7647 14.298 28.3936 14.7544 28.3936H15.9311C16.4164 28.3936 16.81 28.0001 16.81 27.5147V17.1179C16.81 16.6617 17.1811 16.2905 17.6374 16.2905H24.4958C28.2888 16.2905 31.3747 19.3764 31.3747 23.1694C31.3747 26.9624 28.2888 30.0485 24.4958 30.0485ZM12.7171 52.3383C9.38144 49.7537 6.6218 46.3997 4.7366 42.6389C2.76 38.6959 1.75781 34.4435 1.75781 30C1.75781 22.4562 4.69547 15.364 10.0297 10.0297C15.364 4.69547 22.4562 1.75781 30 1.75781C33.926 1.75781 37.7255 2.54777 41.2928 4.10578C44.7391 5.61094 47.81 7.75898 50.4202 10.49C50.7556 10.8409 51.3118 10.8536 51.6627 10.5182C52.0137 10.1828 52.0262 9.62648 51.6908 9.27551C48.919 6.37512 45.6572 4.09383 41.9961 2.49492C38.2057 0.839414 34.1696 0 30 0C21.9867 0 14.453 3.12047 8.78672 8.78684C3.12059 14.453 0 21.9867 0 30C0 34.7195 1.06488 39.2368 3.16512 43.4265C5.16738 47.421 8.09813 50.983 11.6404 53.7278C11.8005 53.8519 11.99 53.912 12.178 53.912C12.4405 53.912 12.7002 53.7949 12.8734 53.5713C13.1707 53.1877 13.1007 52.6356 12.7171 52.3383ZM54.4274 12.5804C54.1452 12.1855 53.5963 12.094 53.2014 12.3762C52.8063 12.6584 52.7149 13.2073 52.997 13.6022C56.4284 18.4057 58.2422 24.0759 58.2422 30C58.2422 37.5438 55.3045 44.636 49.9703 49.9703C44.636 55.3045 37.5438 58.2422 30 58.2422C25.1696 58.2422 20.4032 57.0021 16.2158 54.6559C15.7924 54.4186 15.2568 54.5695 15.0195 54.993C14.7823 55.4166 14.9331 55.9521 15.3566 56.1894C19.8059 58.6823 24.8694 60 30 60C38.0133 60 45.547 56.8794 51.2133 51.2133C56.8795 45.547 60 38.0133 60 30C60 23.7074 58.073 17.6838 54.4274 12.5804ZM30 5.33051C16.3972 5.33051 5.33051 16.3972 5.33051 30C5.33051 43.6028 16.3972 54.6695 30 54.6695C33.6421 54.6695 37.1019 53.8754 40.2166 52.4524C40.2827 52.4309 40.3466 52.4011 40.407 52.3635C43.1487 51.0825 45.6173 49.3123 47.7001 47.165C47.7757 47.1089 47.8425 47.0401 47.8976 46.9605C52.0923 42.5363 54.6694 36.5637 54.6694 30.0001C54.6695 16.3972 43.6028 5.33051 30 5.33051ZM46.0895 29.9398C45.9761 31.8398 46.4212 33.7751 46.6968 34.7595C46.7064 34.7937 46.718 34.8272 46.7316 34.86C46.9249 35.3251 47.089 35.8143 47.2193 36.3139C47.2208 36.3198 47.2225 36.3258 47.2241 36.3316L47.2225 36.3259L47.2322 36.3659C47.9604 39.2123 47.6713 42.6111 46.4237 45.9574C45.471 46.9377 44.4321 47.8338 43.3184 48.6321C43.6623 48.052 43.98 47.4516 44.2665 46.8355C45.8589 43.412 46.3614 39.7726 45.6449 36.8507C45.636 36.8142 45.6247 36.7782 45.6111 36.7432C45.4637 36.3618 45.3155 35.9189 45.1822 35.4625C45.1719 35.4272 45.1595 35.3926 45.1448 35.359C45.0171 35.0646 44.8782 34.7866 44.7322 34.5329C43.2912 32.0278 41.2392 31.8282 40.1443 31.9318C38.2124 32.1146 36.3436 33.4418 35.7975 35.0191C35.7252 35.2279 35.5759 35.396 35.3772 35.4926C35.1783 35.5891 34.9538 35.6024 34.7449 35.5302C34.5361 35.4579 34.3679 35.3086 34.2712 35.1097C34.1747 34.911 34.1613 34.6864 34.2336 34.4776C34.8902 32.5812 36.8473 30.9546 39.1037 30.4301C39.3638 30.3696 39.5822 30.1943 39.6974 29.9535C39.8127 29.7127 39.8122 29.4326 39.6963 29.1921C39.1716 28.1041 38.7968 26.8696 38.5825 25.5226C38.1286 22.6705 38.6164 20.2564 39.9564 18.7253C40.2567 18.382 40.7805 18.347 41.1239 18.6475C41.2902 18.793 41.3899 18.9946 41.4047 19.2151C41.4193 19.4357 41.3474 19.6487 41.2018 19.815C40.206 20.953 39.847 22.9386 40.2169 25.2623C40.3733 26.2454 40.7012 27.3485 41.1165 28.2887C41.6184 29.4251 42.1848 30.216 42.7997 30.6396C42.8483 30.6731 42.9001 30.7015 42.9544 30.7247C43.0308 30.7571 43.1064 30.7914 43.1815 30.8271C43.4486 30.9544 43.7616 30.9388 44.0145 30.7856C44.2675 30.6326 44.4266 30.3626 44.4379 30.0671C44.5445 27.2692 45.5747 25.4024 47.4997 24.5187C47.7006 24.4266 47.9254 24.4181 48.1325 24.4949C48.3397 24.5718 48.5046 24.7247 48.5968 24.9255C48.6891 25.1264 48.6975 25.3511 48.6206 25.5584C48.5439 25.7655 48.3908 25.9304 48.19 26.0227C47.3145 26.4247 46.2394 27.4305 46.0895 29.9398ZM49.1399 42.5788C49.5195 40.2423 49.4563 37.9672 48.9346 35.9278C48.9295 35.9058 48.9241 35.8839 48.918 35.8621C48.7724 35.305 48.59 34.7583 48.3757 34.2361C47.5975 31.4213 47.5357 28.2574 48.9232 27.6204C49.5509 27.3323 50.0286 26.8172 50.2687 26.1697C50.5089 25.5223 50.4824 24.8201 50.1943 24.1925C49.9063 23.565 49.391 23.0871 48.7437 22.8471C48.0961 22.607 47.3939 22.6334 46.7664 22.9215C44.7458 23.8491 43.4387 25.5873 42.9219 28.0032C42.4963 27.1646 42.1202 26.0381 41.9529 24.9866C41.6739 23.233 41.8929 21.6952 42.5248 20.973C42.9796 20.4533 43.2047 19.7877 43.1587 19.0986C43.1128 18.4096 42.8013 17.7797 42.2816 17.325C41.2088 16.3863 39.5722 16.4954 38.6338 17.5682C36.9441 19.4993 36.3095 22.4224 36.8468 25.7993C37.0289 26.944 37.3165 28.0215 37.7043 29.0155C35.314 29.8814 33.3173 31.7523 32.5727 33.9029C32.3468 34.5554 32.3885 35.2569 32.6903 35.878C32.9919 36.4992 33.5175 36.9657 34.1701 37.1917C34.8225 37.4175 35.524 37.3758 36.1452 37.0741C36.7664 36.7724 37.2329 36.2469 37.4588 35.5944C37.7774 34.6739 39.0832 33.7982 40.3103 33.6821C41.5083 33.5687 42.4839 34.1497 43.2087 35.4098C43.314 35.593 43.4156 35.7948 43.511 36.0104C43.6492 36.4788 43.7967 36.9196 43.9505 37.3222C44.5543 39.8548 44.0898 43.0481 42.6728 46.0945C41.8373 47.8907 40.7197 49.5402 39.4356 50.8777C36.5566 52.1839 33.3619 52.9119 30 52.9119C17.3665 52.9119 7.08832 42.6339 7.08832 30.0002C7.08832 17.3666 17.3665 7.08832 30 7.08832C42.6335 7.08832 52.9117 17.3665 52.9117 30C52.9117 34.6424 51.5224 38.9657 49.1399 42.5788ZM24.4958 17.9455H19.3438C18.8584 17.9455 18.4649 18.339 18.4649 18.8244V27.5148C18.4649 28.0002 18.8584 28.3937 19.3438 28.3937H24.4958C27.3764 28.3937 29.7199 26.0502 29.7199 23.1696C29.7199 20.289 27.3764 17.9455 24.4958 17.9455ZM24.4958 26.6359H20.2227V19.7033H24.4958C26.4071 19.7033 27.9621 21.2583 27.9621 23.1696C27.9621 25.0809 26.4071 26.6359 24.4958 26.6359Z" fill="#FB5A16"/>
</g>
<defs>
<clipPath id="clip0">
<rect width="60" height="60" fill="white"/>
</clipPath>
</defs>
</svg>
